# 3ds Max Wavefront OBJ Exporter v0.97b - (c)2007 guruware
# File Created: 27.04.2019 22:36:33

mtllib kirbyluigi.mtl

#
# object legr_0_0_010
#

v  -0.0751 0.0108 -0.0896
v  -0.1153 0.0539 -0.0306
v  -0.0727 0.0525 -0.0786
v  -0.0401 0.0314 -0.0981
v  -0.0572 0.0872 -0.0073
v  -0.0141 0.0503 -0.0658
v  -0.1138 0.0100 -0.0366
v  -0.0906 -0.0042 -0.0415
v  -0.0130 0.0115 -0.0783
v  -0.1075 0.0416 0.0821
v  -0.1304 0.0206 0.0315
v  -0.0024 0.0499 0.0023
v  -0.0195 -0.0030 -0.0261
v  -0.1068 -0.0040 0.0527
v  -0.0589 0.0407 0.0907
v  -0.0046 0.0071 0.0046
v  -0.1122 0.0200 0.0912
v  -0.0169 0.0165 0.0540
v  -0.0439 -0.0027 0.0672
v  -0.0882 0.0015 0.0833
v  -0.0621 0.0181 0.1011
# 21 vertices

vn -0.7269 0.2144 -0.6524
vn -0.3695 0.2572 -0.8929
vn -0.3582 0.8677 -0.3447
vn 0.1582 0.7913 -0.5907
vn -0.8071 0.0517 -0.5882
vn 0.1322 0.8796 -0.4570
vn -0.5385 -0.7395 -0.4039
vn 0.6829 0.2398 -0.6900
vn -0.5307 0.8377 0.1286
vn -0.9715 -0.0023 -0.2370
vn 0.9826 0.0799 -0.1677
vn 0.0581 -0.9641 -0.2591
vn -0.8024 0.5847 0.1198
vn 0.0757 -0.9589 -0.2734
vn -0.6938 -0.7178 -0.0580
vn -0.5339 -0.8408 -0.0897
vn 0.4725 0.7932 0.3842
vn 0.9930 -0.0556 -0.1043
vn 0.0162 -0.9999 0.0048
vn 0.7010 -0.7049 -0.1086
vn -0.9075 0.3129 0.2802
vn -0.0596 0.9024 0.4267
vn 0.9680 -0.0347 0.2486
vn -0.7941 -0.5597 0.2369
vn 0.3962 -0.9120 0.1065
vn 0.7183 0.4752 0.5081
vn -0.4627 -0.7803 0.4207
vn 0.0191 -0.9998 0.0081
vn -0.1500 0.4306 0.8900
vn -0.1630 0.4111 0.8969
vn -0.0235 -0.9814 0.1907
vn 0.6465 -0.7030 0.2962
vn 0.7092 0.2084 0.6735
vn -0.1805 -0.5744 0.7984
vn 0.1291 -0.8132 0.5675
vn 0.6335 -0.4593 0.6227
vn 0.1518 -0.5873 -0.7950
vn 0.5709 0.8157 -0.0932
# 38 vertex normals

g legr_0_0_010
usemtl Material__1197
s 1
f 1//1 2//1 3//1 
f 4//2 1//2 3//2 
f 2//3 5//3 3//3 
f 4//4 3//4 6//4 
f 2//5 1//5 7//5 
f 6//6 3//6 5//6 
f 1//7 8//7 7//7 
f 6//8 9//8 4//8 
f 5//9 2//9 10//9 
f 2//10 7//10 11//10 
f 12//11 9//11 6//11 
f 1//12 9//12 13//12 
f 2//13 11//13 10//13 
f 1//14 13//14 8//14 
f 7//15 14//15 11//15 
f 14//16 7//16 8//16 
f 12//17 5//17 15//17 
f 9//18 12//18 16//18 
f 13//19 14//19 8//19 
f 13//20 9//20 16//20 
f 10//21 11//21 17//21 
f 10//22 15//22 5//22 
f 16//23 12//23 18//23 
f 11//24 14//24 17//24 
f 16//25 19//25 13//25 
f 15//26 18//26 12//26 
f 20//27 17//27 14//27 
f 13//28 19//28 14//28 
f 10//29 21//29 15//29 
f 10//30 17//30 21//30 
f 20//31 14//31 19//31 
f 19//32 16//32 18//32 
f 18//33 15//33 21//33 
f 17//34 20//34 21//34 
f 19//35 21//35 20//35 
f 21//36 19//36 18//36 
f 9//37 1//37 4//37 
f 12//38 6//38 5//38 
# 0 polygons - 38 triangles

#
# object legl_0_0_009
#

v  0.0141 0.0106 -0.0787
v  0.0140 0.0493 -0.0659
v  0.0406 0.0314 -0.0984
v  0.0022 0.0480 0.0021
v  0.0725 0.0532 -0.0786
v  0.0560 0.0868 -0.0069
v  0.0761 0.0117 -0.0900
v  0.0588 0.0395 0.0906
v  0.0056 0.0052 0.0041
v  0.0175 0.0145 0.0535
v  0.0208 -0.0042 -0.0267
v  0.0920 -0.0033 -0.0420
v  0.1151 0.0554 -0.0304
v  0.1079 -0.0035 0.0522
v  0.0450 -0.0041 0.0667
v  0.1147 0.0115 -0.0369
v  0.1074 0.0418 0.0821
v  0.0892 0.0012 0.0829
v  0.1309 0.0219 0.0313
v  0.1126 0.0202 0.0910
v  0.0626 0.0168 0.1008
# 21 vertices

vn -0.6881 0.2275 -0.6891
vn -0.9841 0.0543 -0.1690
vn -0.1558 0.8800 -0.4487
vn -0.5932 0.8004 -0.0865
vn -0.1340 -0.5835 -0.8010
vn -0.4950 0.7760 0.3909
vn -0.9909 -0.0820 -0.1069
vn -0.1791 0.7922 -0.5833
vn -0.9671 -0.0639 0.2462
vn -0.6809 -0.7230 -0.1169
vn -0.0308 -0.9628 -0.2685
vn 0.3639 0.2759 -0.8896
vn -0.0485 -0.9579 -0.2829
vn 0.3346 0.8806 -0.3356
vn 0.0087 -1.0000 -0.0016
vn 0.0116 -0.9999 -0.0049
vn 0.8064 0.0798 -0.5859
vn 0.5070 0.8509 0.1378
vn 0.0505 -0.9821 0.1813
vn 0.7856 0.6055 0.1271
vn 0.7219 0.2407 -0.6488
vn 0.4835 -0.7712 0.4141
vn 0.5572 -0.8247 -0.0967
vn 0.9716 0.0269 -0.2350
vn -0.7160 0.1822 0.6740
vn 0.7136 -0.6977 -0.0634
vn -0.7322 0.4502 0.5112
vn -0.6273 -0.7235 0.2881
vn 0.0337 0.8995 0.4356
vn -0.3709 -0.9236 0.0968
vn 0.5596 -0.7203 -0.4099
vn -0.6216 -0.4827 0.6169
vn -0.1075 -0.8219 0.5593
vn 0.1363 0.4260 0.8944
vn 0.1950 -0.5769 0.7932
vn 0.1499 0.4067 0.9012
vn 0.8089 -0.5397 0.2332
vn 0.8980 0.3352 0.2851
# 38 vertex normals

g legl_0_0_009
usemtl Material__1196
s 1
f 22//39 23//39 24//39 
f 22//40 25//40 23//40 
f 26//41 23//41 27//41 
f 23//42 25//42 27//42 
f 28//43 22//43 24//43 
f 27//44 25//44 29//44 
f 25//45 22//45 30//45 
f 26//46 24//46 23//46 
f 25//47 30//47 31//47 
f 22//48 32//48 30//48 
f 22//49 28//49 32//49 
f 28//50 24//50 26//50 
f 32//51 28//51 33//51 
f 27//52 34//52 26//52 
f 32//53 35//53 36//53 
f 32//54 33//54 35//54 
f 28//55 34//55 37//55 
f 34//56 27//56 38//56 
f 35//57 39//57 36//57 
f 40//58 34//58 38//58 
f 34//59 28//59 26//59 
f 41//60 39//60 35//60 
f 37//61 35//61 33//61 
f 37//62 34//62 40//62 
f 29//63 31//63 42//63 
f 35//64 37//64 40//64 
f 31//65 29//65 25//65 
f 30//66 36//66 31//66 
f 29//67 38//67 27//67 
f 36//68 30//68 32//68 
f 33//69 28//69 37//69 
f 36//70 42//70 31//70 
f 42//71 36//71 39//71 
f 42//72 38//72 29//72 
f 39//73 41//73 42//73 
f 42//74 41//74 38//74 
f 35//75 40//75 41//75 
f 40//76 38//76 41//76 
# 0 polygons - 38 triangles

#
# object armr_0_0_008
#

v  -0.0977 0.1510 -0.0001
v  -0.1245 0.1658 -0.0463
v  -0.0951 0.1502 -0.0001
v  -0.1244 0.1657 0.0462
v  -0.1581 0.1673 0.0308
v  -0.1417 0.1012 0.0262
v  -0.1152 0.0955 -0.0001
v  -0.1418 0.1013 -0.0264
v  -0.1447 0.0833 -0.0001
v  -0.1581 0.1673 -0.0308
v  -0.1768 0.1672 0.0000
v  -0.1675 0.1021 -0.0000
# 12 vertices

vn -0.2822 -0.9490 -0.1403
vn -0.2819 -0.9493 0.1392
vn -0.4157 -0.1655 0.8943
vn 0.8010 -0.2529 0.5427
vn 0.7997 -0.2519 -0.5451
vn 0.6097 -0.3792 0.6961
vn 0.6080 -0.3778 -0.6982
vn 0.3300 -0.7977 0.5047
vn -0.4179 -0.1637 -0.8936
vn -0.7118 -0.1027 0.6948
vn -0.5458 -0.6634 0.5119
vn 0.3288 -0.7968 -0.5070
vn -0.7135 -0.1013 -0.6933
vn -0.8306 -0.2397 -0.5026
vn -0.8294 -0.2407 0.5042
vn -0.5470 -0.6624 -0.5119
# 16 vertex normals

g armr_0_0_008
usemtl Material__1201
s 1
f 43//77 44//77 45//77 
f 46//78 43//78 45//78 
f 47//79 48//79 46//79 
f 43//80 46//80 49//80 
f 44//81 43//81 49//81 
f 49//82 46//82 48//82 
f 44//83 49//83 50//83 
f 49//84 48//84 51//84 
f 50//85 52//85 44//85 
f 48//86 53//86 54//86 
f 48//87 54//87 51//87 
f 50//88 49//88 51//88 
f 53//89 50//89 54//89 
f 50//90 53//90 52//90 
f 53//91 48//91 47//91 
f 54//92 50//92 51//92 
# 0 polygons - 16 triangles

#
# object armr_0_0_007
#

v  -0.1244 0.1657 0.0462
v  -0.0759 0.2057 0.0226
v  -0.1061 0.2115 0.0317
v  -0.1581 0.1673 0.0308
v  -0.0760 0.2057 -0.0227
v  -0.1047 0.2336 0.0000
v  -0.1312 0.2223 0.0136
v  -0.1062 0.2115 -0.0317
v  -0.1312 0.2224 -0.0136
v  -0.1768 0.1672 0.0000
v  -0.1581 0.1673 -0.0308
v  -0.1245 0.1658 -0.0463
v  -0.0951 0.1502 -0.0001
# 13 vertices

vn 0.3138 0.1703 0.9341
vn -0.3630 0.4096 0.8369
vn 0.6956 0.7184 -0.0001
vn 0.3136 0.7722 0.5525
vn -0.3909 0.4431 0.8068
vn 0.3123 0.7733 -0.5518
vn -0.0565 0.8215 -0.5674
vn -0.3898 0.9209 0.0013
vn -0.7396 0.5017 0.4486
vn -0.7704 0.6375 0.0015
vn -0.3649 0.4112 -0.8353
vn -0.3928 0.4446 -0.8050
vn 0.6662 -0.4667 -0.5818
vn -0.7407 0.5026 -0.4459
vn 0.6675 -0.4678 0.5793
vn 0.9452 -0.3264 -0.0014
vn -0.0552 0.8204 0.5691
vn 0.3115 0.1721 -0.9345
# 18 vertex normals

g armr_0_0_007
usemtl Material__1200
s 1
f 55//93 56//93 57//93 
f 57//94 58//94 55//94 
f 59//95 60//95 56//95 
f 60//96 57//96 56//96 
f 61//97 58//97 57//97 
f 62//98 60//98 59//98 
f 60//99 62//99 63//99 
f 60//100 63//100 61//100 
f 58//101 61//101 64//101 
f 63//102 64//102 61//102 
f 65//103 62//103 66//103 
f 62//104 65//104 63//104 
f 67//105 66//105 59//105 
f 65//106 64//106 63//106 
f 55//107 67//107 56//107 
f 56//108 67//108 59//108 
f 57//109 60//109 61//109 
f 59//110 66//110 62//110 
# 0 polygons - 18 triangles

#
# object arml_0_0_006
#

v  0.0972 0.1506 0.0000
v  0.1240 0.1652 -0.0462
v  0.1151 0.0952 0.0000
v  0.0947 0.1495 0.0000
v  0.1582 0.1662 -0.0308
v  0.1417 0.1007 -0.0263
v  0.1240 0.1652 0.0462
v  0.1445 0.0828 0.0000
v  0.1776 0.1668 0.0000
v  0.1675 0.1014 0.0000
v  0.1417 0.1007 0.0263
v  0.1582 0.1662 0.0308
# 12 vertices

vn -0.7980 -0.2585 -0.5443
vn 0.3909 -0.9182 -0.0635
vn 0.4089 -0.1649 -0.8975
vn 0.3909 -0.9182 0.0635
vn -0.7980 -0.2585 0.5443
vn -0.6084 -0.3822 -0.6955
vn -0.3355 -0.7947 -0.5059
vn 0.8234 -0.2425 -0.5130
vn 0.7117 -0.1101 -0.6938
vn -0.6084 -0.3822 0.6955
vn -0.3355 -0.7947 0.5059
vn 0.4089 -0.1649 0.8975
vn 0.7117 -0.1101 0.6938
vn 0.5413 -0.6671 -0.5119
vn 0.8234 -0.2425 0.5130
vn 0.5413 -0.6671 0.5119
# 16 vertex normals

g arml_0_0_006
usemtl Material__1198
s 1
f 68//111 69//111 70//111 
f 69//112 68//112 71//112 
f 72//113 73//113 69//113 
f 68//114 74//114 71//114 
f 74//115 68//115 70//115 
f 70//116 69//116 73//116 
f 70//117 73//117 75//117 
f 76//118 73//118 72//118 
f 73//119 76//119 77//119 
f 74//120 70//120 78//120 
f 78//121 70//121 75//121 
f 78//122 79//122 74//122 
f 76//123 78//123 77//123 
f 73//124 77//124 75//124 
f 78//125 76//125 79//125 
f 77//126 78//126 75//126 
# 0 polygons - 16 triangles

#
# object arml_0_0_005
#

v  0.1240 0.1652 -0.0462
v  0.0760 0.2055 -0.0227
v  0.1069 0.2120 -0.0317
v  0.0947 0.1495 0.0000
v  0.0754 0.2062 0.0227
v  0.1046 0.2335 0.0000
v  0.1311 0.2224 -0.0136
v  0.1062 0.2114 0.0317
v  0.1582 0.1662 -0.0308
v  0.1240 0.1652 0.0462
v  0.1311 0.2224 0.0136
v  0.1776 0.1668 0.0000
v  0.1582 0.1662 0.0308
# 13 vertices

vn -0.3107 0.1759 -0.9341
vn -0.6714 -0.4597 -0.5812
vn -0.9475 -0.3196 -0.0070
vn -0.3224 0.7728 -0.5467
vn 0.0611 0.8285 -0.5566
vn -0.6907 0.7229 -0.0199
vn -0.2951 0.7775 0.5554
vn 0.3676 0.3950 -0.8420
vn -0.6709 -0.4606 0.5812
vn 0.4083 0.4414 -0.7990
vn 0.0521 0.8212 0.5682
vn 0.3855 0.9227 0.0000
vn 0.7310 0.4957 -0.4690
vn 0.7676 0.6410 0.0000
vn 0.3658 0.4037 0.8386
vn 0.3948 0.4376 0.8079
vn -0.3053 0.1760 0.9359
vn 0.7310 0.4957 0.4690
# 18 vertex normals

g arml_0_0_005
usemtl Material__1199
s 1
f 80//127 81//127 82//127 
f 80//128 83//128 81//128 
f 83//129 84//129 81//129 
f 85//130 82//130 81//130 
f 82//131 85//131 86//131 
f 84//132 85//132 81//132 
f 87//133 85//133 84//133 
f 82//134 88//134 80//134 
f 83//135 89//135 84//135 
f 88//136 82//136 86//136 
f 85//137 87//137 90//137 
f 86//138 85//138 90//138 
f 91//139 88//139 86//139 
f 91//140 86//140 90//140 
f 92//141 87//141 89//141 
f 92//142 90//142 87//142 
f 84//143 89//143 87//143 
f 90//144 92//144 91//144 
# 0 polygons - 18 triangles

#
# object body_0_0_004
#

v  0.0544 0.1767 -0.1713
v  -0.0498 0.1278 -0.1314
v  -0.0553 0.1767 -0.1713
v  -0.1305 0.1794 -0.0362
v  0.0480 0.1278 -0.1314
v  -0.1477 0.2356 -0.0462
v  -0.0009 0.3344 -0.0208
v  -0.0988 0.2293 0.0517
v  -0.1106 0.2927 0.0625
v  0.1468 0.2356 -0.0462
v  0.1097 0.2927 0.0625
v  -0.0009 0.3208 0.1169
v  0.1287 0.1794 -0.0362
v  0.0970 0.2293 0.0517
# 14 vertices

vn 0.0000 -0.6317 -0.7752
vn -0.7889 -0.4385 -0.4306
vn -0.8264 -0.3337 -0.4536
vn -0.3697 0.7049 -0.6053
vn -0.8824 -0.1944 0.4286
vn -0.8754 -0.2350 0.4225
vn 0.0000 0.6903 -0.7235
vn 0.3683 0.7061 -0.6048
vn -0.5083 0.8217 -0.2577
vn 0.5057 0.8228 -0.2592
vn -0.2906 0.9522 0.0940
vn 0.7872 -0.4477 -0.4242
vn 0.8251 -0.3455 -0.4471
vn 0.8773 -0.2061 0.4334
vn 0.2884 0.9529 0.0940
vn 0.8698 -0.2472 0.4270
# 16 vertex normals

g body_0_0_004
usemtl Material__1195
s 1
f 93//145 94//145 95//145 
f 96//146 95//146 94//146 
f 93//145 97//145 94//145 
f 96//147 98//147 95//147 
f 95//148 98//148 99//148 
f 100//149 98//149 96//149 
f 100//150 101//150 98//150 
f 95//151 99//151 93//151 
f 93//152 99//152 102//152 
f 99//153 98//153 101//153 
f 99//154 103//154 102//154 
f 99//155 101//155 104//155 
f 93//156 105//156 97//156 
f 93//157 102//157 105//157 
f 102//158 106//158 105//158 
f 99//159 104//159 103//159 
f 102//160 103//160 106//160 
# 0 polygons - 17 triangles

#
# object body_0_0_003
#

v  -0.0009 0.2411 0.0834
v  -0.0009 0.2583 0.1785
v  -0.0906 0.2429 0.1115
v  -0.0988 0.2293 0.0517
v  0.0888 0.2429 0.1115
v  0.0970 0.2293 0.0517
v  -0.0009 0.2610 0.1097
# 7 vertices

vn 0.0359 -0.9834 0.1779
vn 0.0477 -0.9754 0.2152
vn -0.0477 -0.9754 0.2152
vn -0.0359 -0.9834 0.1779
vn -0.1971 0.9796 0.0387
vn -0.1981 0.9613 -0.1915
vn 0.1981 0.9613 -0.1915
vn 0.1971 0.9796 0.0387
# 8 vertex normals

g body_0_0_003
usemtl Material__1194
s 1
f 107//161 108//161 109//161 
f 107//162 109//162 110//162 
f 111//163 107//163 112//163 
f 108//164 107//164 111//164 
f 113//165 109//165 108//165 
f 109//166 113//166 110//166 
f 113//167 111//167 112//167 
f 111//168 113//168 108//168 
# 0 polygons - 8 triangles

#
# object body_767EABBB_0_004
#

v  -0.0988 0.2293 0.0517
v  -0.0009 0.2610 0.1097
v  -0.0009 0.3208 0.1169
v  -0.1106 0.2927 0.0625
v  0.0970 0.2293 0.0517
v  0.1097 0.2927 0.0625
# 6 vertices

vn -0.4814 -0.1055 0.8701
vn -0.3860 -0.2250 0.8946
vn 0.3819 -0.2298 0.8952
vn 0.4814 -0.1055 0.8701
# 4 vertex normals

vt 0.0210 -0.0366 0.0000
vt 0.4966 -0.0583 0.0000
vt 0.4995 0.9471 0.0000
vt -0.0361 1.0176 0.0000
vt 0.9727 -0.0366 0.0000
vt 1.0352 1.0176 0.0000
# 6 texture coords

g body_767EABBB_0_004
usemtl Material__1193
s 1
f 114/1/169 115/2/169 116/3/169 
f 114/1/170 116/3/170 117/4/170 
f 118/5/171 119/6/171 116/3/171 
f 118/5/172 116/3/172 115/2/172 
# 0 polygons - 4 triangles

#
# object body_34B9100B_0_003
#

v  -0.1269 0.0888 0.0480
v  -0.0707 0.0870 0.0943
v  -0.1006 0.1377 0.0943
v  -0.0526 0.0290 0.0480
v  0.0000 0.0553 0.0943
v  -0.1269 0.1930 0.0480
v  -0.0544 0.1377 0.1223
v  0.0526 0.0290 0.0480
v  -0.0707 0.2148 0.0943
v  -0.0381 0.1097 0.1223
v  0.0707 0.0870 0.0943
v  0.0000 0.0924 0.1223
v  -0.0371 0.2755 0.0426
v  0.0000 0.1377 0.1323
v  0.1269 0.0888 0.0480
v  -0.0381 0.1794 0.1223
v  0.0381 0.1097 0.1223
v  0.0544 0.1377 0.1223
v  0.1006 0.1377 0.0943
v  0.0000 0.2465 0.0943
v  0.0000 0.1967 0.1223
v  0.1269 0.1930 0.0480
v  0.0381 0.1794 0.1223
v  0.0707 0.2148 0.0943
v  0.0372 0.2755 0.0426
# 25 vertices

vn -0.6009 -0.3541 0.7166
vn -0.5060 -0.6287 0.5905
vn -0.2918 -0.6502 0.7015
vn -0.8693 -0.0000 0.4943
vn -0.4967 -0.2927 0.8171
vn 0.0000 -0.8693 0.4943
vn -0.6715 0.2607 0.6936
vn -0.2606 -0.5809 0.7711
vn 0.2918 -0.6502 0.7015
vn -0.5005 -0.2906 0.8155
vn -0.5092 0.1977 0.8377
vn -0.2632 -0.5818 0.7695
vn -0.6031 0.6833 0.4116
vn 0.2612 -0.5822 0.7700
vn -0.1793 -0.1041 0.9783
vn 0.5060 -0.6287 0.5905
vn -0.5072 0.1985 0.8387
vn -0.0967 -0.2139 0.9721
vn -0.1799 0.0704 0.9812
vn 0.2621 -0.5794 0.7717
vn 0.5005 -0.2906 0.8155
vn 0.0967 -0.2139 0.9721
vn 0.6009 -0.3541 0.7166
vn -0.2147 0.4785 0.8514
vn 0.1793 -0.1041 0.9783
vn -0.0753 0.1664 0.9832
vn -0.2168 0.4793 0.8504
vn 0.4967 -0.2927 0.8171
vn 0.8693 -0.0000 0.4943
vn 0.0753 0.1664 0.9832
vn 0.2160 0.4775 0.8516
vn 0.0000 0.8720 0.4895
vn 0.3186 0.7101 0.6279
vn 0.2152 0.4795 0.8507
vn -0.3186 0.7101 0.6279
vn 0.6715 0.2607 0.6936
vn 0.5092 0.1977 0.8377
vn 0.1799 0.0704 0.9812
vn 0.6031 0.6833 0.4116
vn 0.5072 0.1985 0.8387
# 40 vertex normals

vt 0.0946 0.1997 0.0000
vt 0.2735 0.1938 0.0000
vt 0.1796 0.3823 0.0000
vt 0.3330 -0.0210 0.0000
vt 0.5001 0.0767 0.0000
vt 0.0946 0.5864 0.0000
vt 0.3264 0.3823 0.0000
vt 0.6668 -0.0210 0.0000
vt 0.2735 0.6655 0.0000
vt 0.3774 0.2788 0.0000
vt 0.7267 0.1938 0.0000
vt 0.5001 0.2148 0.0000
vt 0.3802 0.8906 0.0000
vt 0.5001 0.3823 0.0000
vt 0.9052 0.1997 0.0000
vt 0.3774 0.5356 0.0000
vt 0.6224 0.2788 0.0000
vt 0.6734 0.3823 0.0000
vt 0.8202 0.3823 0.0000
vt 0.5001 0.7832 0.0000
vt 0.5001 0.5991 0.0000
vt 0.9052 0.5864 0.0000
vt 0.6224 0.5356 0.0000
vt 0.7267 0.6655 0.0000
vt 0.6196 0.8906 0.0000
# 25 texture coords

g body_34B9100B_0_003
usemtl Material__1191
s 1
f 120/7/173 121/8/173 122/9/173 
f 121/8/174 120/7/174 123/10/174 
f 123/10/175 124/11/175 121/8/175 
f 122/9/176 125/12/176 120/7/176 
f 121/8/177 126/13/177 122/9/177 
f 124/11/178 123/10/178 127/14/178 
f 125/12/179 122/9/179 128/15/179 
f 124/11/180 129/16/180 121/8/180 
f 127/14/181 130/17/181 124/11/181 
f 121/8/182 129/16/182 126/13/182 
f 126/13/183 128/15/183 122/9/183 
f 124/11/184 131/18/184 129/16/184 
f 128/15/185 132/19/185 125/12/185 
f 130/17/186 131/18/186 124/11/186 
f 133/20/187 126/13/187 129/16/187 
f 130/17/188 127/14/188 134/21/188 
f 126/13/189 135/22/189 128/15/189 
f 133/20/190 129/16/190 131/18/190 
f 133/20/191 135/22/191 126/13/191 
f 130/17/192 136/23/192 131/18/192 
f 130/17/193 137/24/193 136/23/193 
f 133/20/194 131/18/194 136/23/194 
f 134/21/195 138/25/195 130/17/195 
f 135/22/196 139/26/196 128/15/196 
f 133/20/197 136/23/197 137/24/197 
f 133/20/198 140/27/198 135/22/198 
f 135/22/199 140/27/199 139/26/199 
f 130/17/200 138/25/200 137/24/200 
f 138/25/201 134/21/201 141/28/201 
f 133/20/202 142/29/202 140/27/202 
f 140/27/203 142/29/203 143/30/203 
f 139/26/204 144/31/204 132/19/204 
f 144/31/205 139/26/205 143/30/205 
f 140/27/206 143/30/206 139/26/206 
f 132/19/207 128/15/207 139/26/207 
f 141/28/208 143/30/208 138/25/208 
f 137/24/209 138/25/209 143/30/209 
f 133/20/210 137/24/210 142/29/210 
f 143/30/211 141/28/211 144/31/211 
f 137/24/212 143/30/212 142/29/212 
# 0 polygons - 40 triangles

#
# object body_0_0_002
#

v  0.0000 0.0308 -0.0498
v  -0.0942 0.0562 -0.0498
v  -0.0725 0.0761 -0.0915
v  -0.1314 0.1377 -0.0489
v  -0.0544 0.1377 -0.1205
v  -0.1006 0.1377 -0.0915
v  -0.0390 0.1042 -0.1196
v  0.0000 0.0498 -0.0915
v  -0.1024 0.0498 0.0000
v  -0.1423 0.1377 0.0009
v  0.0000 0.1377 -0.1305
v  0.0000 0.0906 -0.1196
v  -0.0707 0.1831 -0.0915
v  0.0390 0.1042 -0.1196
v  0.0000 0.0217 0.0000
v  -0.0381 0.1649 -0.1205
v  -0.1269 0.0888 0.0480
v  -0.0526 0.0290 0.0480
v  -0.0924 0.2293 -0.0489
v  0.0725 0.0761 -0.0915
v  0.0544 0.1377 -0.1205
v  -0.0951 0.2266 0.0009
v  -0.1269 0.1930 0.0480
v  0.0943 0.0562 -0.0498
v  0.0526 0.0290 0.0480
v  0.1024 0.0498 0.0000
v  0.1006 0.1377 -0.0915
v  0.1314 0.1377 -0.0489
v  0.1423 0.1377 0.0009
v  -0.0371 0.2755 0.0426
v  0.1269 0.0888 0.0480
v  0.1269 0.1930 0.0480
v  0.0952 0.2266 0.0009
v  0.0707 0.1831 -0.0915
v  0.0924 0.2293 -0.0489
v  0.0381 0.1649 -0.1205
v  0.0372 0.2755 0.0426
# 37 vertices

vn -0.2232 -0.8289 -0.5129
vn -0.7578 -0.3390 -0.5575
vn -0.5165 -0.2355 -0.8232
vn -0.7600 -0.3465 -0.5498
vn -0.2032 -0.5604 -0.8029
vn -0.4914 -0.2483 -0.8348
vn -0.3132 -0.8639 -0.3944
vn -0.2565 -0.9527 -0.1632
vn -0.8934 -0.4048 -0.1949
vn -0.8935 -0.4033 -0.1975
vn -0.1793 -0.1088 -0.9778
vn -0.1941 -0.5565 -0.8078
vn -0.5015 0.3310 -0.7993
vn -0.0782 -0.2242 -0.9714
vn 0.1941 -0.5565 -0.8078
vn -0.2606 -0.9499 -0.1727
vn -0.1793 0.1076 -0.9779
vn -0.9036 -0.4085 -0.1289
vn -0.5263 0.3158 -0.7895
vn -0.5984 -0.7435 0.2984
vn -0.2619 -0.9545 -0.1425
vn -0.7659 0.3261 -0.5541
vn 0.0782 -0.2242 -0.9714
vn 0.3132 -0.8639 -0.3944
vn -0.5831 0.3849 -0.7154
vn 0.2032 -0.5604 -0.8029
vn 0.1793 -0.1088 -0.9778
vn -0.8674 0.4602 -0.1892
vn -0.9505 -0.0000 0.3107
vn 0.2561 -0.9511 -0.1729
vn 0.4914 -0.2483 -0.8348
vn 0.2232 -0.8289 -0.5129
vn -0.9197 0.3916 -0.0288
vn 0.0000 -0.9888 0.1493
vn 0.2610 -0.9513 -0.1638
vn -0.8547 0.4535 -0.2526
vn 0.2619 -0.9545 -0.1425
vn 0.5165 -0.2355 -0.8232
vn 0.7617 -0.3409 -0.5510
vn 0.7548 -0.3441 -0.5584
vn 0.8935 -0.4033 -0.1975
vn -0.6727 0.7365 0.0713
vn 0.8934 -0.4048 -0.1949
vn 0.5984 -0.7435 0.2984
vn 0.9505 -0.0000 0.3107
vn 0.8674 0.4602 -0.1892
vn 0.8547 0.4535 -0.2526
vn 0.6856 0.2919 -0.6669
vn 0.9197 0.3916 -0.0288
vn 0.5015 0.3310 -0.7993
vn 0.7145 0.4716 -0.5169
vn 0.1793 0.1076 -0.9779
vn 0.5263 0.3158 -0.7895
vn 0.9036 -0.4085 -0.1289
vn 0.6727 0.7365 0.0713
# 55 vertex normals

g body_0_0_002
usemtl Material__1202
s 1
f 145//213 146//213 147//213 
f 148//214 147//214 146//214 
f 149//215 147//215 150//215 
f 148//216 150//216 147//216 
f 151//217 152//217 147//217 
f 149//218 151//218 147//218 
f 145//219 147//219 152//219 
f 145//220 153//220 146//220 
f 154//221 148//221 146//221 
f 154//222 146//222 153//222 
f 155//223 151//223 149//223 
f 151//224 156//224 152//224 
f 157//225 149//225 150//225 
f 155//226 156//226 151//226 
f 158//227 152//227 156//227 
f 145//228 159//228 153//228 
f 155//229 149//229 160//229 
f 153//230 161//230 154//230 
f 157//231 160//231 149//231 
f 161//232 153//232 162//232 
f 159//233 162//233 153//233 
f 163//234 150//234 148//234 
f 155//235 158//235 156//235 
f 164//236 145//236 152//236 
f 163//237 157//237 150//237 
f 158//238 164//238 152//238 
f 155//239 165//239 158//239 
f 166//240 148//240 154//240 
f 167//241 154//241 161//241 
f 168//242 159//242 145//242 
f 165//243 164//243 158//243 
f 164//244 168//244 145//244 
f 166//245 163//245 148//245 
f 162//246 159//246 169//246 
f 168//247 170//247 159//247 
f 154//248 167//248 166//248 
f 170//249 169//249 159//249 
f 165//250 171//250 164//250 
f 168//251 171//251 172//251 
f 171//252 168//252 164//252 
f 168//253 173//253 170//253 
f 174//254 166//254 167//254 
f 168//255 172//255 173//255 
f 169//256 170//256 175//256 
f 175//257 173//257 176//257 
f 172//258 177//258 173//258 
f 177//259 176//259 173//259 
f 178//260 179//260 172//260 
f 172//261 179//261 177//261 
f 178//262 171//262 165//262 
f 178//263 172//263 171//263 
f 155//264 180//264 165//264 
f 178//265 165//265 180//265 
f 173//266 175//266 170//266 
f 176//267 177//267 181//267 
# 0 polygons - 55 triangles

