# Blender v2.81 (sub 16) OBJ File: ''
# www.blender.org
mtllib PikachuBalloon.mtl
o Pikachu_Balloon
v -11.000000 54.003910 32.695312
v 10.000000 54.003910 32.695312
v 10.000000 66.550781 28.675783
v -11.000000 66.550781 28.675783
v 54.000000 3.000000 0.000000
v 38.183590 3.000002 -38.183590
v 0.000000 3.000000 0.000000
v 0.000000 3.000002 -54.000000
v -38.183590 3.000002 -38.183590
v 54.000000 3.000000 0.000000
v 0.000000 3.000000 0.000000
v 38.183590 2.999998 38.183590
v 0.000000 2.999998 54.000000
v 0.000000 2.999998 54.000000
v 0.000000 3.000000 0.000000
v -38.183590 2.999998 38.183590
v -54.000000 3.000000 0.000000
v -38.183590 3.000002 -38.183590
v -54.000000 3.000000 0.000000
v 0.000000 3.000000 0.000000
v -24.058590 61.511719 20.234383
v -26.835939 55.394531 20.351562
v -21.281250 56.628910 23.921883
v -24.058590 50.511719 24.039062
v -18.503910 51.750000 27.613281
v -18.503910 51.750000 27.613281
v -15.726560 57.867191 27.496092
v -21.281250 56.628910 23.921883
v -18.503910 62.750000 23.804691
v -24.058590 61.511719 20.234383
v 26.617189 55.394531 20.351562
v 23.839840 61.511719 20.234383
v 21.062500 56.628910 23.921883
v 18.285160 62.750000 23.804691
v 15.503910 57.867191 27.496092
v 26.617189 55.394531 20.351562
v 21.062500 56.628910 23.921883
v 23.839840 50.511719 24.039062
v 18.285160 51.750000 27.613281
v 15.503910 57.867191 27.496092
v 18.285160 51.750000 27.613281
v 21.062500 56.628910 23.921883
v 36.148441 31.550779 0.000001
v 18.703131 45.050781 0.000002
v 25.562500 31.550777 25.562502
v 13.226560 45.050781 13.226562
v 0.000000 31.550777 36.148441
v 0.000000 45.050781 18.703133
v -25.562500 31.550777 25.562502
v -13.226560 45.050781 13.226562
v -36.148441 31.550779 0.000001
v -18.703131 45.050781 0.000002
v 42.457031 16.250000 0.000001
v 36.148441 31.550779 0.000001
v 30.019529 16.249998 30.019529
v 25.562500 31.550777 25.562502
v 0.000000 16.249998 42.457031
v 0.000000 31.550777 36.148441
v -30.019529 16.249998 30.019529
v -25.562500 31.550777 25.562502
v -42.457031 16.250000 0.000001
v -36.148441 31.550779 0.000001
v 18.703131 45.050781 0.000002
v 36.148441 31.550779 0.000001
v 13.226560 45.050781 -13.226558
v 25.562500 31.550781 -25.562498
v 0.000000 45.050781 -18.703129
v 0.000000 31.550781 -36.148441
v -13.226560 45.050781 -13.226558
v -25.562500 31.550781 -25.562498
v -18.703131 45.050781 0.000002
v -36.148441 31.550779 0.000001
v 36.148441 31.550779 0.000001
v 42.457031 16.250000 0.000001
v 25.562500 31.550781 -25.562498
v 30.019529 16.250002 -30.019529
v 0.000000 31.550781 -36.148441
v 0.000000 16.250002 -42.457031
v -25.562500 31.550781 -25.562498
v -30.019529 16.250002 -30.019529
v -36.148441 31.550779 0.000001
v -42.457031 16.250000 0.000001
v 15.132810 75.242188 -6.269527
v 26.523439 68.937500 -10.984377
v 6.269531 75.242188 -15.132807
v 10.984380 68.937500 -26.523436
v -6.269531 75.242188 -15.132807
v -10.984380 68.937500 -26.523436
v -15.132810 75.242188 -6.269527
v -26.523439 68.937500 -10.984377
v 26.523439 68.937500 -10.984377
v 31.761721 52.828129 -13.156248
v 10.984380 68.937500 -26.523436
v 13.156250 52.828129 -31.761719
v -10.984380 68.937500 -26.523436
v -13.156250 52.828129 -31.761719
v -26.523439 68.937500 -10.984377
v -31.761721 52.828129 -13.156248
v 6.269531 75.242188 15.132812
v -6.269531 75.242188 15.132812
v 10.984380 68.937500 26.523443
v -10.984380 68.937500 26.523443
v 13.156250 52.828129 31.761723
v -13.156250 52.828129 31.761723
v 31.761721 52.828129 -13.156248
v 26.523439 68.937500 -10.984377
v 31.761721 52.828129 13.156252
v 26.523439 68.937500 10.984383
v 13.156250 52.828129 31.761723
v 10.984380 68.937500 26.523443
v -13.156250 52.828129 31.761723
v -10.984380 68.937500 26.523443
v -31.761721 52.828129 13.156252
v -26.523439 68.937500 10.984383
v -31.761721 52.828129 -13.156248
v -26.523439 68.937500 -10.984377
v 15.132810 75.242188 -6.269527
v 6.269531 75.242188 -15.132807
v 0.000000 81.546883 0.000004
v -6.269531 75.242188 -15.132807
v -15.132810 75.242188 -6.269527
v 16.687500 69.125000 26.273443
v 15.437500 71.253906 25.457033
v 14.187500 69.484383 26.894533
v 12.937500 71.613281 26.078135
v 11.687500 69.839844 27.515635
v 20.523439 66.953133 24.652344
v 18.027340 71.210938 23.019533
v 15.527340 67.667969 25.894533
v 13.027340 71.929688 24.261724
v 10.527340 68.386719 27.136724
v -16.378910 71.253906 25.457033
v -17.628910 69.125000 26.273443
v -15.128910 69.484383 26.894533
v -16.378910 67.355469 27.707033
v -13.878910 67.710938 28.328135
v -13.968750 64.128906 28.765633
v -11.472660 68.386719 27.136724
v -16.468750 67.667969 25.894533
v -13.968750 71.929688 24.261724
v -18.968750 71.210938 23.019533
v -18.968750 71.210938 23.019533
v -21.468750 66.953133 24.652344
v -16.468750 67.667969 25.894533
v -18.968750 63.410160 27.523441
v -13.968750 64.128906 28.765633
v -13.878910 67.710938 28.328135
v -12.628910 69.839844 27.515635
v -15.128910 69.484383 26.894533
v -13.878910 71.613281 26.078135
v -16.378910 71.253906 25.457033
v 15.132810 75.242188 -6.269527
v 0.000000 81.546883 0.000004
v 15.132810 75.242188 6.269534
v 6.269531 75.242188 15.132812
v -6.269531 75.242188 15.132812
v 0.000000 81.546883 0.000004
v -15.132810 75.242188 6.269534
v -15.132810 75.242188 -6.269527
v 20.523439 66.953133 24.652344
v 15.527340 67.667969 25.894533
v 18.027340 63.410160 27.523441
v 13.027340 64.128906 28.765633
v 16.687500 69.125000 26.273443
v 14.187500 69.484383 26.894533
v 15.437500 67.355469 27.707033
v 12.937500 67.710938 28.328135
v 10.984380 68.937500 26.523443
v 26.523439 68.937500 10.984383
v 15.132810 75.242188 6.269534
v 6.269531 75.242188 15.132812
v -26.523439 68.937500 10.984383
v -10.984380 68.937500 26.523443
v -6.269531 75.242188 15.132812
v -15.132810 75.242188 6.269534
v 27.070311 38.992191 -11.214838
v 11.214840 38.992191 -27.070309
v 13.156250 52.828129 -31.761719
v 31.761721 52.828129 -13.156248
v 27.070311 38.992191 11.214842
v 27.070311 38.992191 -11.214838
v 31.761721 52.828129 -13.156248
v 31.761721 52.828129 13.156252
v 11.214840 38.992191 27.070312
v 27.070311 38.992191 11.214842
v 31.761721 52.828129 13.156252
v 13.156250 52.828129 31.761723
v -11.214840 38.992191 27.070312
v 11.214840 38.992191 27.070312
v 13.156250 52.828129 31.761723
v -13.156250 52.828129 31.761723
v -27.070311 38.992191 11.214842
v -11.214840 38.992191 27.070312
v -13.156250 52.828129 31.761723
v -31.761721 52.828129 13.156252
v -27.070311 38.992191 -11.214838
v -27.070311 38.992191 11.214842
v -31.761721 52.828129 13.156252
v -31.761721 52.828129 -13.156248
v -40.144531 3.648438 0.000000
v -28.386721 3.648437 28.386721
v -30.019529 16.249998 30.019529
v -42.457031 16.250000 0.000001
v -28.386721 3.648437 28.386721
v 0.000000 3.648436 40.144531
v 0.000000 16.249998 42.457031
v -30.019529 16.249998 30.019529
v 0.000000 3.648440 -40.144531
v -28.386721 3.648439 -28.386721
v -30.019529 16.250002 -30.019529
v 0.000000 16.250002 -42.457031
v 0.000000 3.648436 40.144531
v 28.386721 3.648437 28.386721
v 30.019529 16.249998 30.019529
v 0.000000 16.249998 42.457031
v 28.386721 3.648437 28.386721
v 40.144531 3.648438 0.000000
v 42.457031 16.250000 0.000001
v 30.019529 16.249998 30.019529
v 40.144531 3.648438 0.000000
v 28.386721 3.648439 -28.386721
v 30.019529 16.250002 -30.019529
v 42.457031 16.250000 0.000001
v -28.386721 3.648439 -28.386721
v -40.144531 3.648438 0.000000
v -42.457031 16.250000 0.000001
v -30.019529 16.250002 -30.019529
v 11.214840 38.992191 -27.070309
v -11.214840 38.992191 -27.070309
v -13.156250 52.828129 -31.761719
v 13.156250 52.828129 -31.761719
v 28.386721 3.648439 -28.386721
v 0.000000 3.648440 -40.144531
v 0.000000 16.250002 -42.457031
v 30.019529 16.250002 -30.019529
v -11.214840 38.992191 -27.070309
v -27.070311 38.992191 -11.214838
v -31.761721 52.828129 -13.156248
v -13.156250 52.828129 -31.761719
v 15.132810 75.242188 -6.269527
v 15.132810 75.242188 6.269534
v 48.000000 95.000000 0.000004
v 26.523439 68.937500 -10.984377
v 15.132810 75.242188 -6.269527
v 48.000000 95.000000 0.000004
v 26.523439 68.937500 10.984383
v 26.523439 68.937500 -10.984377
v 48.000000 95.000000 0.000004
v -15.132810 75.242188 -6.269527
v -26.523439 68.937500 -10.984377
v -48.000000 95.000000 0.000004
v -15.132810 75.242188 6.269534
v -15.132810 75.242188 -6.269527
v -48.000000 95.000000 0.000004
v -26.523439 68.937500 10.984383
v -15.132810 75.242188 6.269534
v -48.000000 95.000000 0.000004
v -26.523439 68.937500 -10.984377
v -26.523439 68.937500 10.984383
v -48.000000 95.000000 0.000004
v -6.269531 75.242188 15.132812
v 6.269531 75.242188 15.132812
v 0.000000 81.546883 0.000004
v 10.527340 68.386719 27.136724
v 13.027340 64.128906 28.765633
v 15.527340 67.667969 25.894533
v 15.132810 75.242188 6.269534
v 26.523439 68.937500 10.984383
v 48.000000 95.000000 0.000004
v 11.687500 69.839844 27.515635
v 12.937500 67.710938 28.328135
v 14.187500 69.484383 26.894533
vt 1.000000 -1.000000
vt 0.000000 0.000000
vt 0.000000 -1.000000
vt 1.000000 0.000000
vt 0.500000 -0.210938
vt 0.500000 -0.210938
vt 0.500000 -0.875000
vt 0.500000 -0.210938
vt 0.500000 -0.210938
vt 0.500000 -0.210938
vt 0.500000 -0.875000
vt 0.500000 -0.210938
vt 0.500000 -0.210938
vt 0.500000 -0.210938
vt 0.500000 -0.875000
vt 0.500000 -0.210938
vt 0.500000 -0.210938
vt 0.500000 -0.210938
vt 0.500000 -0.210938
vt 0.500000 -0.875000
vt 0.882812 -0.984375
vt 0.882812 -0.984375
vt 0.882812 -0.023438
vt 0.882812 -0.984375
vt 0.882812 -0.984375
vt 0.882812 -0.984375
vt 0.882812 -0.984375
vt 0.882812 -0.023438
vt 0.882812 -0.984375
vt 0.882812 -0.984375
vt 0.882812 -0.984375
vt 0.882812 -0.984375
vt 0.882812 -0.023438
vt 0.882812 -0.984375
vt 0.882812 -0.984375
vt 0.882812 -0.984375
vt 0.882812 -0.023438
vt 0.882812 -0.984375
vt 0.882812 -0.984375
vt 0.882812 -0.984375
vt 0.882812 -0.984375
vt 0.882812 -0.023438
vt 0.656250 -0.753906
vt 0.656250 -0.246094
vt 0.156250 -0.753906
vt 0.156250 -0.246094
vt 0.656250 -0.753906
vt 0.656250 -0.246094
vt 0.156250 -0.753906
vt 0.156250 -0.246094
vt 0.656250 -0.753906
vt 0.656250 -0.246094
vt 0.656250 -0.753906
vt 0.656250 -0.246094
vt 0.156250 -0.753906
vt 0.156250 -0.246094
vt 0.656250 -0.753906
vt 0.656250 -0.246094
vt 0.156250 -0.753906
vt 0.156250 -0.246094
vt 0.656250 -0.753906
vt 0.656250 -0.246094
vt 0.267578 -0.640625
vt 0.267578 -0.640625
vt 0.267578 -0.640625
vt 0.267578 -0.640625
vt 0.267578 -0.640625
vt 0.267578 -0.640625
vt 0.267578 -0.640625
vt 0.267578 -0.640625
vt 0.267578 -0.640625
vt 0.267578 -0.640625
vt 0.267578 -0.640625
vt 0.267578 -0.640625
vt 0.267578 -0.640625
vt 0.267578 -0.640625
vt 0.267578 -0.640625
vt 0.267578 -0.640625
vt 0.267578 -0.640625
vt 0.267578 -0.640625
vt 0.267578 -0.640625
vt 0.267578 -0.640625
vt 0.267578 -0.640625
vt 0.267578 -0.640625
vt 0.267578 -0.640625
vt 0.267578 -0.640625
vt 0.267578 -0.640625
vt 0.267578 -0.640625
vt 0.267578 -0.640625
vt 0.267578 -0.640625
vt 0.267578 -0.640625
vt 0.267578 -0.640625
vt 0.267578 -0.640625
vt 0.267578 -0.640625
vt 0.267578 -0.640625
vt 0.267578 -0.640625
vt 0.267578 -0.640625
vt 0.267578 -0.640625
vt 0.267578 -0.640625
vt 0.267578 -0.640625
vt 0.267578 -0.640625
vt 0.267578 -0.640625
vt 0.267578 -0.640625
vt 0.267578 -0.640625
vt 0.656250 -0.753906
vt 0.656250 -0.246094
vt 0.156250 -0.753906
vt 0.156250 -0.246094
vt 0.656250 -0.753906
vt 0.656250 -0.246094
vt 0.656250 -0.753906
vt 0.656250 -0.246094
vt 0.156250 -0.753906
vt 0.156250 -0.246094
vt 0.656250 -0.753906
vt 0.656250 -0.246094
vt 0.267578 -0.640625
vt 0.267578 -0.640625
vt 0.267578 -0.640625
vt 0.267578 -0.640625
vt 0.267578 -0.640625
vt 0.880859 -0.287109
vt 0.880859 -0.287109
vt 0.880859 -0.015625
vt 0.880859 -0.287109
vt 0.880859 -0.287109
vt 0.880859 -0.986328
vt 0.880859 -0.986328
vt 0.880859 -0.312500
vt 0.880859 -0.986328
vt 0.880859 -0.986328
vt 0.880859 -0.287109
vt 0.880859 -0.287109
vt 0.880859 -0.015625
vt 0.880859 -0.287109
vt 0.880859 -0.287109
vt 0.880859 -0.986328
vt 0.880859 -0.986328
vt 0.880859 -0.312500
vt 0.880859 -0.986328
vt 0.880859 -0.986328
vt 0.880859 -0.986328
vt 0.880859 -0.986328
vt 0.880859 -0.312500
vt 0.880859 -0.986328
vt 0.880859 -0.986328
vt 0.880859 -0.287109
vt 0.880859 -0.287109
vt 0.880859 -0.015625
vt 0.880859 -0.287109
vt 0.880859 -0.287109
vt 0.656250 -0.753906
vt 0.406250 -0.246094
vt 0.156250 -0.753906
vt 0.656250 -0.753906
vt 0.656250 -0.753906
vt 0.406250 -0.246094
vt 0.156250 -0.753906
vt 0.656250 -0.753906
vt 0.880859 -0.986328
vt 0.880859 -0.312500
vt 0.880859 -0.986328
vt 0.880859 -0.986328
vt 0.880859 -0.287109
vt 0.880859 -0.015625
vt 0.880859 -0.287109
vt 0.880859 -0.287109
vt 0.156250 -0.753906
vt 0.656250 -0.246094
vt 0.656250 -0.753906
vt 0.156250 -0.753906
vt 0.656250 -0.246094
vt 0.156250 -0.246094
vt 0.062500 -0.992188
vt 0.062500 -0.033203
vt 0.062500 -0.033203
vt 0.089844 -0.990234
vt 0.027344 -0.005859
vt 0.027344 -0.990234
vt 0.027344 -0.990234
vt 0.089844 -0.005859
vt 0.089844 -0.990234
vt 0.089844 -0.990234
vt 0.041016 -0.005859
vt 0.041016 -0.990234
vt 0.027344 -0.990234
vt 0.089844 -0.005859
vt 0.027344 -0.005859
vt 0.027344 -0.990234
vt 0.089844 -0.005859
vt 0.089844 -0.990234
vt 0.089844 -0.990234
vt 0.027344 -0.005859
vt 0.089844 -0.005859
vt 0.089844 -0.990234
vt 0.027344 -0.005859
vt 0.027344 -0.990234
vt 0.062500 -0.992188
vt 0.062500 -0.033203
vt 0.062500 -0.033203
vt 0.089844 -0.990234
vt 0.027344 -0.005859
vt 0.089844 -0.005859
vt 0.093750 -0.990234
vt 0.027344 -0.005859
vt 0.027344 -0.990234
vt 0.062500 -0.992188
vt 0.062500 -0.033203
vt 0.062500 -0.033203
vt 0.062500 -0.992188
vt 0.062500 -0.033203
vt 0.062500 -0.992188
vt 0.062500 -0.992188
vt 0.062500 -0.033203
vt 0.062500 -0.992188
vt 0.062500 -0.992188
vt 0.062500 -0.033203
vt 0.062500 -0.992188
vt 0.062500 -0.992188
vt 0.062500 -0.033203
vt 0.062500 -0.992188
vt 0.980469 -0.986328
vt 0.980469 -0.986328
vt 0.980469 -0.013672
vt 0.980469 -0.986328
vt 0.980469 -0.986328
vt 0.980469 -0.013672
vt 0.980469 -0.986328
vt 0.980469 -0.986328
vt 0.980469 -0.013672
vt 0.980469 -0.986328
vt 0.980469 -0.986328
vt 0.980469 -0.013672
vt 0.980469 -0.986328
vt 0.980469 -0.986328
vt 0.980469 -0.013672
vt 0.980469 -0.986328
vt 0.980469 -0.986328
vt 0.980469 -0.013672
vt 0.980469 -0.986328
vt 0.980469 -0.986328
vt 0.980469 -0.013672
vt 0.267578 -0.640625
vt 0.267578 -0.640625
vt 0.267578 -0.640625
vt 0.880859 -0.986328
vt 0.880859 -0.986328
vt 0.880859 -0.312500
vt 0.980469 -0.986328
vt 0.980469 -0.986328
vt 0.980469 -0.013672
vt 0.880859 -0.287109
vt 0.880859 -0.287109
vt 0.880859 -0.015625
vt 0.156250 -0.246094
vt 0.656250 -0.753906
vt 0.062500 -0.992188
vt 0.089844 -0.005859
vt 0.027344 -0.005859
vt 0.089844 -0.005859
vt 0.089844 -0.990234
vt 0.027344 -0.005859
vt 0.027344 -0.990234
vt 0.089844 -0.005859
vt 0.062500 -0.992188
vt 0.027344 -0.990234
vt 0.093750 -0.005859
vt 0.062500 -0.992188
vt 0.062500 -0.033203
vt 0.062500 -0.033203
vt 0.062500 -0.033203
vt 0.062500 -0.033203
vn -0.0000 0.3046 0.9525
vn 0.0000 1.0000 0.0000
vn -0.5626 0.2697 0.7815
vn -0.5627 0.2696 0.7815
vn -0.5627 0.2697 0.7815
vn -0.5627 0.2697 0.7814
vn -0.5627 0.2698 0.7814
vn 0.5627 0.2696 0.7815
vn 0.5626 0.2698 0.7815
vn 0.5627 0.2697 0.7815
vn 0.5626 0.2698 0.7814
vn 0.7920 0.6106 -0.0000
vn 0.6115 0.7912 -0.0000
vn 0.5599 0.6107 0.5600
vn 0.4332 0.7904 0.4332
vn 0.0000 0.6106 0.7920
vn 0.0000 0.7913 0.6115
vn -0.5600 0.6107 0.5599
vn -0.4331 0.7904 0.4331
vn -0.7920 0.6106 -0.0000
vn -0.6115 0.7913 0.0000
vn 0.9245 0.3811 -0.0000
vn 0.6538 0.3809 0.6538
vn 0.5599 0.6107 0.5599
vn -0.0000 0.3811 0.9245
vn -0.6538 0.3809 0.6538
vn -0.5599 0.6107 0.5599
vn -0.9245 0.3812 0.0000
vn 0.6115 0.7913 -0.0000
vn 0.4332 0.7904 -0.4332
vn 0.5600 0.6107 -0.5599
vn -0.0000 0.7913 -0.6115
vn -0.0000 0.6106 -0.7920
vn -0.4332 0.7904 -0.4332
vn -0.5599 0.6107 -0.5600
vn -0.6115 0.7912 0.0000
vn 0.9245 0.3812 -0.0000
vn 0.5599 0.6107 -0.5599
vn 0.6538 0.3809 -0.6538
vn 0.0000 0.3811 -0.9245
vn -0.5599 0.6107 -0.5599
vn -0.6538 0.3809 -0.6538
vn -0.9245 0.3811 0.0000
vn 0.3379 0.9181 -0.2071
vn 0.7366 0.5588 -0.3810
vn 0.1561 0.9131 -0.3766
vn 0.2851 0.6659 -0.6894
vn -0.1561 0.9131 -0.3766
vn -0.2851 0.6659 -0.6894
vn -0.3379 0.9181 -0.2071
vn -0.7366 0.5588 -0.3810
vn 0.8713 0.3321 -0.3614
vn 0.3610 0.3320 -0.8715
vn -0.3614 0.3321 -0.8712
vn -0.8713 0.3321 -0.3614
vn 0.1561 0.9131 0.3766
vn -0.1561 0.9131 0.3766
vn 0.2851 0.6659 0.6894
vn -0.2851 0.6659 0.6894
vn 0.3614 0.3321 0.8713
vn -0.3614 0.3321 0.8713
vn 0.8712 0.3321 0.3614
vn 0.7366 0.5588 0.3810
vn -0.8712 0.3321 0.3614
vn -0.7366 0.5588 0.3810
vn 0.2756 0.4807 0.8324
vn 0.2756 0.4808 0.8324
vn 0.2757 0.4810 0.8323
vn 0.2755 0.4807 0.8325
vn 0.2757 0.4808 0.8323
vn 0.2758 0.4808 0.8323
vn 0.2759 0.4807 0.8323
vn -0.2755 0.4807 0.8325
vn -0.2759 0.4805 0.8325
vn -0.2756 0.4806 0.8325
vn -0.2756 0.4807 0.8324
vn -0.2757 0.4807 0.8324
vn -0.2755 0.4810 0.8323
vn -0.2757 0.4806 0.8325
vn -0.2755 0.4808 0.8324
vn -0.2754 0.4805 0.8326
vn 0.3379 0.9181 0.2071
vn -0.3379 0.9181 0.2071
vn 0.2756 0.4807 0.8325
vn 0.2758 0.4804 0.8325
vn 0.2755 0.4808 0.8324
vn 0.2755 0.4807 0.8324
vn 0.2852 0.6659 0.6894
vn 0.6699 -0.3202 -0.6699
vn 0.9473 -0.3203 -0.0000
vn 0.6699 -0.3202 0.6699
vn 0.0000 -0.3204 0.9473
vn -0.6699 -0.3202 0.6699
vn -0.9473 -0.3203 0.0000
vn -0.9107 -0.1682 0.3772
vn -0.9108 -0.1681 0.3772
vn -0.3772 -0.1682 0.9107
vn -0.3772 -0.1681 0.9108
vn -0.3772 -0.1680 0.9108
vn -0.3772 -0.1682 -0.9107
vn -0.3772 -0.1681 -0.9108
vn 0.3772 -0.1682 0.9107
vn 0.3772 -0.1681 0.9108
vn 0.9107 -0.1682 0.3772
vn 0.9108 -0.1681 0.3772
vn 0.9108 -0.1680 0.3772
vn 0.9107 -0.1682 -0.3772
vn 0.9108 -0.1681 -0.3772
vn -0.9107 -0.1682 -0.3772
vn -0.9108 -0.1681 -0.3772
vn -0.9108 -0.1680 -0.3772
vn -0.0000 -0.3204 -0.9473
vn 0.3772 -0.1682 -0.9107
vn 0.3772 -0.1681 -0.9108
vn 0.3772 -0.1680 -0.9108
vn -0.6699 -0.3202 -0.6699
vn -0.5152 0.8571 0.0000
vn -0.1094 0.4607 -0.8808
vn 0.7712 -0.6366 -0.0000
vn 0.1094 0.4607 -0.8808
vn 0.5152 0.8571 0.0000
vn 0.1094 0.4607 0.8808
vn -0.7712 -0.6366 0.0000
vn -0.1094 0.4607 0.8808
vn -0.2852 0.6659 0.6894
vn -0.9108 -0.1680 0.3772
vn -0.3772 -0.1680 -0.9108
vn 0.3772 -0.1680 0.9108
vn 0.9108 -0.1680 -0.3772
usemtl lambert4
s 1
f 2/1/1 4/2/1 1/3/1
f 2/1/1 3/4/1 4/2/1
usemtl h_kage_lm1
f 5/5/2 6/6/2 7/7/2
f 6/6/2 8/8/2 7/7/2
f 7/7/2 8/8/2 9/9/2
f 10/10/2 11/11/2 12/12/2
f 11/11/2 13/13/2 12/12/2
f 14/14/2 15/15/2 16/16/2
f 15/15/2 17/17/2 16/16/2
f 18/18/2 19/19/2 20/20/2
usemtl lambert3
f 21/21/3 22/22/3 23/23/4
f 22/22/3 24/24/5 23/23/4
f 23/23/4 24/24/5 25/25/5
f 26/26/4 27/27/6 28/28/6
f 27/27/6 29/29/7 28/28/6
f 28/28/6 29/29/7 30/30/3
f 31/31/8 32/32/8 33/33/9
f 32/32/8 34/34/10 33/33/9
f 33/33/9 34/34/10 35/35/11
f 36/36/8 37/37/10 38/38/8
f 37/37/10 39/39/10 38/38/8
f 40/40/8 41/41/8 42/42/8
usemtl h_test_lm1
f 43/43/12 44/44/13 45/45/14
f 44/44/13 46/46/15 45/45/14
f 45/45/14 46/46/15 47/47/16
f 46/46/15 48/48/17 47/47/16
f 47/47/16 48/48/17 49/49/18
f 48/48/17 50/50/19 49/49/18
f 49/49/18 50/50/19 51/51/20
f 50/50/19 52/52/21 51/51/20
f 53/53/22 54/54/12 55/55/23
f 54/54/12 56/56/24 55/55/23
f 55/55/23 56/56/24 57/57/25
f 56/56/24 58/58/16 57/57/25
f 57/57/25 58/58/16 59/59/26
f 58/58/16 60/60/27 59/59/26
f 59/59/26 60/60/27 61/61/28
f 60/60/27 62/62/20 61/61/28
f 63/63/29 64/64/12 65/65/30
f 64/64/12 66/66/31 65/65/30
f 65/65/30 66/66/31 67/67/32
f 66/66/31 68/68/33 67/67/32
f 67/67/32 68/68/33 69/69/34
f 68/68/33 70/70/35 69/69/34
f 69/69/34 70/70/35 71/71/36
f 70/70/35 72/72/20 71/71/36
f 73/73/12 74/74/37 75/75/38
f 74/74/37 76/76/39 75/75/38
f 75/75/38 76/76/39 77/77/33
f 76/76/39 78/78/40 77/77/33
f 77/77/33 78/78/40 79/79/41
f 78/78/40 80/80/42 79/79/41
f 79/79/41 80/80/42 81/81/20
f 80/80/42 82/82/43 81/81/20
f 83/83/44 84/84/45 85/85/46
f 84/84/45 86/86/47 85/85/46
f 85/85/46 86/86/47 87/87/48
f 86/86/47 88/88/49 87/87/48
f 87/87/48 88/88/49 89/89/50
f 88/88/49 90/90/51 89/89/50
f 91/91/45 92/92/52 93/93/47
f 92/92/52 94/94/53 93/93/47
f 93/93/47 94/94/53 95/95/49
f 94/94/53 96/96/54 95/95/49
f 95/95/49 96/96/54 97/97/51
f 96/96/54 98/98/55 97/97/51
f 99/99/56 100/100/57 101/101/58
f 100/100/57 102/102/59 101/101/58
f 101/101/58 102/102/59 103/103/60
f 102/102/59 104/104/61 103/103/60
f 105/105/52 106/106/45 107/107/62
f 106/106/45 108/108/63 107/107/62
f 107/107/62 108/108/63 109/109/60
f 108/108/63 110/110/58 109/109/60
f 111/111/61 112/112/59 113/113/64
f 112/112/59 114/114/65 113/113/64
f 113/113/64 114/114/65 115/115/55
f 114/114/65 116/116/51 115/115/55
f 117/117/44 118/118/46 119/119/2
f 118/118/46 120/120/48 119/119/2
f 119/119/2 120/120/48 121/121/50
f 122/122/66 123/123/67 124/124/68
f 123/123/67 125/125/69 124/124/68
f 124/124/68 125/125/69 126/126/69
f 127/127/70 128/128/69 129/129/71
f 128/128/69 130/130/72 129/129/71
f 129/129/71 130/130/72 131/131/66
f 132/132/73 133/133/74 134/134/75
f 133/133/74 135/135/73 134/134/75
f 134/134/75 135/135/73 136/136/73
f 137/137/73 138/138/76 139/139/77
f 138/138/76 140/140/73 139/139/77
f 139/139/77 140/140/73 141/141/76
f 142/142/78 143/143/73 144/144/79
f 143/143/73 145/145/80 144/144/79
f 144/144/79 145/145/80 146/146/73
f 147/147/73 148/148/73 149/149/81
f 148/148/73 150/150/73 149/149/81
f 149/149/81 150/150/73 151/151/73
f 152/152/44 153/153/2 154/154/82
f 153/153/2 155/155/56 154/154/82
f 156/156/57 157/157/2 158/158/83
f 157/157/2 159/159/50 158/158/83
f 160/160/84 161/161/85 162/162/86
f 161/161/85 163/163/69 162/162/86
f 164/164/87 165/165/69 166/166/86
f 165/165/69 167/167/87 166/166/86
f 169/168/63 171/169/56 168/170/88
f 172/171/65 174/172/57 175/173/83
f 176/174/89 178/175/89 179/176/89
f 181/177/90 183/178/90 180/179/90
f 185/180/91 187/181/91 184/182/91
f 189/183/92 191/184/92 188/185/92
f 192/186/93 194/187/93 195/188/93
f 197/189/94 199/190/94 196/191/94
f 200/192/95 202/193/96 203/194/95
f 205/195/97 207/196/98 204/197/99
f 208/198/100 210/199/101 211/200/100
f 212/201/102 214/202/103 215/203/102
f 217/204/104 219/205/105 216/206/106
f 220/207/107 222/208/108 223/209/107
f 225/210/109 227/211/110 224/212/111
f 229/213/112 231/214/112 228/215/112
f 233/216/113 235/217/114 232/218/115
f 237/219/116 239/220/116 236/221/116
f 240/222/117 241/223/117 242/224/117
f 243/225/118 244/226/118 245/227/118
f 246/228/119 247/229/119 248/230/119
f 249/231/120 250/232/120 251/233/120
f 252/234/121 253/235/121 254/236/121
f 255/237/122 256/238/122 257/239/122
f 258/240/123 259/241/123 260/242/123
f 261/243/57 262/244/56 263/245/2
f 264/246/69 265/247/69 266/248/69
f 267/249/124 268/250/124 269/251/124
f 270/252/69 271/253/69 272/254/69
f 169/168/63 170/255/82 171/169/56
f 172/171/65 173/256/125 174/172/57
f 176/174/89 177/257/89 178/175/89
f 181/177/90 182/258/90 183/178/90
f 185/180/91 186/259/91 187/181/91
f 189/183/92 190/260/92 191/184/92
f 192/186/93 193/261/93 194/187/93
f 197/189/94 198/262/94 199/190/94
f 200/192/95 201/263/126 202/193/96
f 205/195/97 206/264/97 207/196/98
f 208/198/100 209/265/127 210/199/101
f 212/201/102 213/266/128 214/202/103
f 217/204/104 218/267/104 219/205/105
f 220/207/107 221/268/129 222/208/108
f 225/210/109 226/269/109 227/211/110
f 229/213/112 230/270/112 231/214/112
f 233/216/113 234/271/113 235/217/114
f 237/219/116 238/272/116 239/220/116
